<svg width="608" height="199" viewBox="0 0 608 199" fill="none" xmlns="http://www.w3.org/2000/svg">
<path d="M101.894 3.85458C104.202 1.68744 107.798 1.68745 110.106 3.85458L207.34 95.1254C209.864 97.4953 209.864 101.505 207.34 103.875L110.106 195.145C107.798 197.313 104.202 197.313 101.894 195.145L4.66042 103.875C2.13561 101.505 2.13562 97.4953 4.66043 95.1254L101.894 3.85458Z" fill="#65DAFF"/>
<path d="M112.224 123.448C108.939 123.448 105.995 122.915 103.392 121.848C100.789 120.781 98.6987 119.203 97.12 117.112C95.584 115.021 94.7733 112.504 94.688 109.56H106.336C106.507 111.224 107.083 112.504 108.064 113.4C109.045 114.253 110.325 114.68 111.904 114.68C113.525 114.68 114.805 114.317 115.744 113.592C116.683 112.824 117.152 111.779 117.152 110.456C117.152 109.347 116.768 108.429 116 107.704C115.275 106.979 114.357 106.381 113.248 105.912C112.181 105.443 110.645 104.909 108.64 104.312C105.739 103.416 103.371 102.52 101.536 101.624C99.7013 100.728 98.1227 99.4053 96.8 97.656C95.4773 95.9067 94.816 93.624 94.816 90.808C94.816 86.6267 96.3307 83.3627 99.36 81.016C102.389 78.6267 106.336 77.432 111.2 77.432C116.149 77.432 120.139 78.6267 123.168 81.016C126.197 83.3627 127.819 86.648 128.032 90.872H116.192C116.107 89.4213 115.573 88.2907 114.592 87.48C113.611 86.6267 112.352 86.2 110.816 86.2C109.493 86.2 108.427 86.5627 107.616 87.288C106.805 87.9707 106.4 88.9733 106.4 90.296C106.4 91.7467 107.083 92.8773 108.448 93.688C109.813 94.4987 111.947 95.3733 114.848 96.312C117.749 97.2933 120.096 98.232 121.888 99.128C123.723 100.024 125.301 101.325 126.624 103.032C127.947 104.739 128.608 106.936 128.608 109.624C128.608 112.184 127.947 114.509 126.624 116.6C125.344 118.691 123.467 120.355 120.992 121.592C118.517 122.829 115.595 123.448 112.224 123.448ZM170.223 78.072V86.84H158.319V123H147.375V86.84H135.471V78.072H170.223ZM205.476 99.96C208.078 100.515 210.169 101.816 211.748 103.864C213.326 105.869 214.116 108.173 214.116 110.776C214.116 114.531 212.793 117.517 210.148 119.736C207.545 121.912 203.897 123 199.204 123H178.276V78.072H198.5C203.065 78.072 206.628 79.1173 209.188 81.208C211.79 83.2987 213.092 86.136 213.092 89.72C213.092 92.3653 212.388 94.5627 210.98 96.312C209.614 98.0613 207.78 99.2773 205.476 99.96ZM189.22 96.248H196.388C198.18 96.248 199.545 95.864 200.484 95.096C201.465 94.2853 201.956 93.112 201.956 91.576C201.956 90.04 201.465 88.8667 200.484 88.056C199.545 87.2453 198.18 86.84 196.388 86.84H189.22V96.248ZM197.284 114.168C199.118 114.168 200.526 113.763 201.508 112.952C202.532 112.099 203.044 110.883 203.044 109.304C203.044 107.725 202.51 106.488 201.444 105.592C200.42 104.696 198.99 104.248 197.156 104.248H189.22V114.168H197.284ZM233.967 78.072V123H223.023V78.072H233.967ZM322.405 78.072L310.693 123H297.445L290.277 93.432L282.853 123H269.605L258.213 78.072H269.925L276.389 110.776L284.389 78.072H296.421L304.101 110.776L310.629 78.072H322.405ZM351.701 123.448C347.477 123.448 343.594 122.467 340.053 120.504C336.554 118.541 333.76 115.811 331.669 112.312C329.621 108.771 328.597 104.803 328.597 100.408C328.597 96.0133 329.621 92.0667 331.669 88.568C333.76 85.0693 336.554 82.3387 340.053 80.376C343.594 78.4133 347.477 77.432 351.701 77.432C355.925 77.432 359.786 78.4133 363.285 80.376C366.826 82.3387 369.6 85.0693 371.605 88.568C373.653 92.0667 374.677 96.0133 374.677 100.408C374.677 104.803 373.653 108.771 371.605 112.312C369.557 115.811 366.784 118.541 363.285 120.504C359.786 122.467 355.925 123.448 351.701 123.448ZM351.701 113.464C355.285 113.464 358.144 112.269 360.277 109.88C362.453 107.491 363.541 104.333 363.541 100.408C363.541 96.44 362.453 93.2827 360.277 90.936C358.144 88.5467 355.285 87.352 351.701 87.352C348.074 87.352 345.173 88.5253 342.997 90.872C340.864 93.2187 339.797 96.3973 339.797 100.408C339.797 104.376 340.864 107.555 342.997 109.944C345.173 112.291 348.074 113.464 351.701 113.464ZM406.238 123L396.894 106.04H394.27V123H383.326V78.072H401.694C405.235 78.072 408.243 78.6907 410.718 79.928C413.235 81.1653 415.112 82.872 416.35 85.048C417.587 87.1813 418.206 89.5707 418.206 92.216C418.206 95.2027 417.352 97.8693 415.646 100.216C413.982 102.563 411.507 104.227 408.222 105.208L418.59 123H406.238ZM394.27 98.296H401.054C403.059 98.296 404.552 97.8053 405.534 96.824C406.558 95.8427 407.07 94.456 407.07 92.664C407.07 90.9573 406.558 89.6133 405.534 88.632C404.552 87.6507 403.059 87.16 401.054 87.16H394.27V98.296ZM444.468 78.072C449.204 78.072 453.342 79.0107 456.884 80.888C460.425 82.7653 463.156 85.4107 465.076 88.824C467.038 92.1947 468.02 96.0987 468.02 100.536C468.02 104.931 467.038 108.835 465.076 112.248C463.156 115.661 460.404 118.307 456.82 120.184C453.278 122.061 449.161 123 444.468 123H427.636V78.072H444.468ZM443.764 113.528C447.902 113.528 451.124 112.397 453.428 110.136C455.732 107.875 456.884 104.675 456.884 100.536C456.884 96.3973 455.732 93.176 453.428 90.872C451.124 88.568 447.902 87.416 443.764 87.416H438.58V113.528H443.764ZM516.888 123H505.944L487.64 95.288V123H476.696V78.072H487.64L505.944 105.912V78.072H516.888V123ZM538.325 86.84V95.928H552.981V104.376H538.325V114.232H554.901V123H527.381V78.072H554.901V86.84H538.325ZM596.886 78.072V86.84H584.982V123H574.038V86.84H562.134V78.072H596.886Z" fill="#113C49"/>
</svg>
