<svg width="358" height="93" viewBox="0 0 358 93" fill="none" xmlns="http://www.w3.org/2000/svg">
<path d="M47.6213 1.80149C48.7003 0.788649 50.3806 0.788651 51.4596 1.80149L96.9028 44.4581C98.0828 45.5657 98.0828 47.4395 96.9028 48.5472L51.4596 91.2037C50.3806 92.2166 48.7003 92.2166 47.6213 91.2037L2.17811 48.5472C0.998105 47.4395 0.998109 45.5657 2.17811 44.4581L47.6213 1.80149Z" fill="#65DAFF"/>
<path d="M52.4494 57.9796C50.9139 57.9796 49.538 57.7304 48.3216 57.2319C47.1052 56.7333 46.1281 55.9955 45.3903 55.0184C44.6725 54.0413 44.2936 52.8648 44.2537 51.4889H49.6976C49.7773 52.2666 50.0465 52.8648 50.5052 53.2836C50.9638 53.6824 51.562 53.8818 52.2998 53.8818C53.0576 53.8818 53.6558 53.7123 54.0945 53.3733C54.5332 53.0144 54.7525 52.5258 54.7525 51.9077C54.7525 51.3892 54.5731 50.9605 54.2141 50.6215C53.8752 50.2825 53.4464 50.0033 52.928 49.784C52.4294 49.5646 51.7116 49.3154 50.7744 49.0362C49.4184 48.6174 48.3117 48.1987 47.4542 47.7799C46.5968 47.3612 45.8589 46.743 45.2408 45.9254C44.6226 45.1078 44.3135 44.041 44.3135 42.7249C44.3135 40.7707 45.0214 39.2452 46.4372 38.1485C47.853 37.0318 49.6976 36.4735 51.9708 36.4735C54.2839 36.4735 56.1484 37.0318 57.5642 38.1485C58.98 39.2452 59.7378 40.7807 59.8375 42.7548H54.3039C54.264 42.0768 54.0147 41.5484 53.5561 41.1695C53.0975 40.7707 52.5092 40.5713 51.7913 40.5713C51.1732 40.5713 50.6747 40.7408 50.2958 41.0798C49.9169 41.3989 49.7275 41.8675 49.7275 42.4856C49.7275 43.1636 50.0465 43.692 50.6846 44.0709C51.3227 44.4498 52.3198 44.8586 53.6757 45.2973C55.0317 45.7559 56.1285 46.1946 56.966 46.6134C57.8234 47.0321 58.5612 47.6403 59.1794 48.438C59.7976 49.2356 60.1067 50.2625 60.1067 51.5188C60.1067 52.7153 59.7976 53.802 59.1794 54.7791C58.5812 55.7562 57.7038 56.5339 56.5472 57.1122C55.3907 57.6905 54.0247 57.9796 52.4494 57.9796ZM79.556 36.7726V40.8704H73.9925V57.7703H68.8777V40.8704H63.3142V36.7726H79.556ZM96.0317 47.0022C97.2481 47.2615 98.2252 47.8696 98.963 48.8268C99.7008 49.764 100.07 50.8408 100.07 52.0572C100.07 53.812 99.4515 55.2079 98.2152 56.2448C96.9988 57.2618 95.2939 57.7703 93.1004 57.7703H83.3194V36.7726H92.7714C94.905 36.7726 96.5701 37.2611 97.7665 38.2382C98.9829 39.2153 99.5911 40.5414 99.5911 42.2164C99.5911 43.4528 99.2621 44.4797 98.604 45.2973C97.9659 46.1149 97.1085 46.6832 96.0317 47.0022ZM88.4342 45.2674H91.7843C92.6218 45.2674 93.2599 45.0879 93.6986 44.729C94.1572 44.3501 94.3866 43.8017 94.3866 43.0838C94.3866 42.366 94.1572 41.8176 93.6986 41.4387C93.2599 41.0599 92.6218 40.8704 91.7843 40.8704H88.4342V45.2674ZM92.203 53.6425C93.0605 53.6425 93.7185 53.4531 94.1772 53.0742C94.6558 52.6754 94.8951 52.1071 94.8951 51.3693C94.8951 50.6315 94.6458 50.0532 94.1473 49.6344C93.6687 49.2157 93.0007 49.0063 92.1432 49.0063H88.4342V53.6425H92.203ZM109.348 36.7726V57.7703H104.233V36.7726H109.348ZM150.68 36.7726L145.206 57.7703H139.015L135.665 43.9513L132.195 57.7703H126.003L120.679 36.7726H126.153L129.174 52.0572L132.913 36.7726H138.536L142.125 52.0572L145.176 36.7726H150.68ZM164.372 57.9796C162.398 57.9796 160.583 57.521 158.928 56.6037C157.293 55.6864 155.987 54.4102 155.01 52.7751C154.053 51.12 153.574 49.2655 153.574 47.2116C153.574 45.1577 154.053 43.3132 155.01 41.678C155.987 40.0429 157.293 38.7667 158.928 37.8494C160.583 36.9321 162.398 36.4735 164.372 36.4735C166.346 36.4735 168.151 36.9321 169.786 37.8494C171.441 38.7667 172.737 40.0429 173.674 41.678C174.632 43.3132 175.11 45.1577 175.11 47.2116C175.11 49.2655 174.632 51.12 173.674 52.7751C172.717 54.4102 171.421 55.6864 169.786 56.6037C168.151 57.521 166.346 57.9796 164.372 57.9796ZM164.372 53.3135C166.047 53.3135 167.383 52.7551 168.38 51.6385C169.397 50.5218 169.906 49.0462 169.906 47.2116C169.906 45.3571 169.397 43.8815 168.38 42.7847C167.383 41.6681 166.047 41.1097 164.372 41.1097C162.677 41.1097 161.321 41.6581 160.304 42.7548C159.307 43.8516 158.809 45.3372 158.809 47.2116C158.809 49.0661 159.307 50.5517 160.304 51.6684C161.321 52.7651 162.677 53.3135 164.372 53.3135ZM189.86 57.7703L185.493 49.8438H184.267V57.7703H179.152V36.7726H187.737C189.392 36.7726 190.798 37.0617 191.954 37.64C193.131 38.2183 194.008 39.0159 194.586 40.0329C195.165 41.0299 195.454 42.1466 195.454 43.383C195.454 44.7788 195.055 46.0251 194.257 47.1219C193.48 48.2186 192.323 48.9963 190.788 49.4549L195.633 57.7703H189.86ZM184.267 46.2245H187.438C188.375 46.2245 189.073 45.9952 189.531 45.5366C190.01 45.0779 190.249 44.4299 190.249 43.5923C190.249 42.7947 190.01 42.1666 189.531 41.7079C189.073 41.2493 188.375 41.02 187.438 41.02H184.267V46.2245ZM207.728 36.7726C209.941 36.7726 211.875 37.2113 213.53 38.0887C215.186 38.9661 216.462 40.2024 217.359 41.7977C218.276 43.373 218.735 45.1976 218.735 47.2714C218.735 49.3253 218.276 51.1499 217.359 52.7452C216.462 54.3404 215.176 55.5768 213.501 56.4542C211.845 57.3316 209.921 57.7703 207.728 57.7703H199.861V36.7726H207.728ZM207.399 53.3434C209.333 53.3434 210.838 52.815 211.915 51.7581C212.992 50.7012 213.53 49.2057 213.53 47.2714C213.53 45.3372 212.992 43.8316 211.915 42.7548C210.838 41.678 209.333 41.1396 207.399 41.1396H204.976V53.3434H207.399ZM241.574 57.7703H236.459L227.905 44.8187V57.7703H222.79V36.7726H227.905L236.459 49.784V36.7726H241.574V57.7703ZM251.593 40.8704V45.1178H258.443V49.0661H251.593V53.6724H259.34V57.7703H246.478V36.7726H259.34V40.8704H251.593ZM278.962 36.7726V40.8704H273.399V57.7703H268.284V40.8704H262.72V36.7726H278.962Z" fill="#113C49"/>
</svg>
